<svg width="20.000000" height="17.000000" viewBox="0 0 20 17" fill="none" xmlns="http://www.w3.org/2000/svg" xmlns:xlink="http://www.w3.org/1999/xlink">
	<desc>
			Created with Pixso.
	</desc>
	<defs/>
	<path id="Vector" d="M20 1.79C19.25 2.12 18.46 2.34 17.63 2.44C18.48 1.93 19.13 1.14 19.44 0.18C18.64 0.65 17.77 0.98 16.84 1.17C16.08 0.37 15.01 -0.13 13.84 -0.13C11.57 -0.13 9.74 1.71 9.74 3.97C9.74 4.3 9.77 4.61 9.84 4.91C6.43 4.74 3.41 3.11 1.39 0.62C1.03 1.23 0.83 1.93 0.83 2.69C0.83 4.11 1.56 5.37 2.65 6.1C1.99 6.08 1.34 5.89 0.8 5.59C0.8 5.6 0.8 5.62 0.8 5.64C0.8 7.63 2.22 9.29 4.08 9.67C3.75 9.76 3.38 9.8 3.01 9.8C2.74 9.8 2.48 9.79 2.23 9.73C2.76 11.36 4.27 12.55 6.06 12.59C4.67 13.68 2.89 14.34 0.98 14.34C0.64 14.34 0.32 14.32 0 14.28C1.81 15.45 3.96 16.12 6.29 16.12C13.83 16.12 17.95 9.87 17.95 4.45C17.95 4.27 17.95 4.1 17.94 3.92C18.75 3.34 19.44 2.62 20 1.79Z" fill="#FFFFFF" fill-opacity="1.000000" fill-rule="nonzero"/>
</svg>
